<?xml version="1.0" encoding="utf-8"?>
<!-- Generator: Adobe Illustrator 18.0.0, SVG Export Plug-In . SVG Version: 6.00 Build 0)  -->
<!DOCTYPE svg PUBLIC "-//W3C//DTD SVG 1.1//EN" "http://www.w3.org/Graphics/SVG/1.1/DTD/svg11.dtd">
<svg version="1.1" id="Layer_1" xmlns="http://www.w3.org/2000/svg" xmlns:xlink="http://www.w3.org/1999/xlink" x="0px" y="0px"
	 viewBox="0 0 90 30" enable-background="new 0 0 90 30" xml:space="preserve">
<g>
	<path fill="#55C2BC" d="M57.3,10.6c-0.2-0.1-0.3-0.3-0.5-0.4C56.2,9.7,56,9.5,56,9.2V2.3c0-0.8-0.6-1.4-1.4-1.4h-2.3
		c-0.8,0-1.4,0.6-1.4,1.4v6.9c0,0.3-0.2,0.5-0.8,0.9c-0.2,0.1-0.4,0.3-0.5,0.4c-1.3,1.2-1.6,2.4-1.6,4.4v12.1c0,1.1,0.9,2,2,2h6.9
		c1.1,0,2-0.9,2-2V15C58.8,13,58.6,11.8,57.3,10.6z M54.2,2.6v4.6h-1.7V2.6H54.2z M56.8,27.4h-6.9c-0.2,0-0.3-0.1-0.3-0.3V15
		c0-1.9,0.3-2.5,1-3.1c0.1-0.1,0.3-0.2,0.4-0.4c0.6-0.5,1.5-1.1,1.5-2.3V8.9h1.7v0.3c0,1.2,0.8,1.8,1.5,2.3c0.1,0.1,0.3,0.2,0.4,0.4
		c0.7,0.6,1,1.2,1,3.1v0.9h-6.3v9.2h6.3v2C57.1,27.3,57,27.4,56.8,27.4z M57.1,17.6v5.8h-4.6v-5.8H57.1z"/>
	<rect x="39.5" y="19.3" fill="#55C2BC" width="1.2" height="1.7"/>
	<rect x="42.4" y="19.3" fill="#55C2BC" width="1.2" height="1.7"/>
	<rect x="45.3" y="19.3" fill="#55C2BC" width="1.2" height="1.7"/>
	<rect x="44.1" y="22.2" fill="#55C2BC" width="1.2" height="1.7"/>
	<rect x="41.3" y="22.2" fill="#55C2BC" width="1.2" height="1.7"/>
	<path fill="#55C2BC" d="M38.5,6.2c-0.5-0.5-1.1-0.8-1.8-0.8c-0.7,0-1.3,0.3-1.8,0.8c-1,1-1,2.7,0,3.7l1.9,1.9h-3.5
		c-1.1,0-2,0.9-2,2V15c0,1.1,0.8,1.9,1.9,2l1.9,8.4c0.3,1.2,1.3,2,2.5,2h10.1v-1.7H37.5c-0.4,0-0.8-0.3-0.8-0.7l-1.8-8h1.2v-1.7
		h-2.9c-0.2,0-0.3-0.1-0.3-0.3v-1.2c0-0.2,0.1-0.3,0.3-0.3h5.2v-0.1l3.4,3.4c0.5,0.5,1.1,0.8,1.8,0.8s1.3-0.3,1.8-0.8
		c0.5-0.5,0.8-1.1,0.8-1.8c0-0.5-0.2-1-0.4-1.4h1.9v-1.7h-3.5L38.5,6.2z M44.2,15.6c-0.3,0.3-0.9,0.3-1.2,0L36,8.7
		c-0.3-0.3-0.3-0.9,0-1.2c0.2-0.2,0.4-0.3,0.6-0.3c0.2,0,0.4,0.1,0.6,0.3l6.9,6.9c0.2,0.2,0.3,0.4,0.3,0.6S44.3,15.4,44.2,15.6z"/>
</g>
</svg>
