<?xml version="1.0" encoding="utf-8"?>
<!-- Generator: Adobe Illustrator 18.0.0, SVG Export Plug-In . SVG Version: 6.00 Build 0)  -->
<!DOCTYPE svg PUBLIC "-//W3C//DTD SVG 1.1//EN" "http://www.w3.org/Graphics/SVG/1.1/DTD/svg11.dtd">
<svg version="1.1" id="icons" xmlns="http://www.w3.org/2000/svg" xmlns:xlink="http://www.w3.org/1999/xlink" x="0px" y="0px"
	 viewBox="0 0 26 26" enable-background="new 0 0 26 26" xml:space="preserve">
<g>
	<path fill="#F57C30" d="M17.4,20.1l0.7,1.3c2.5-1.4,4.2-3.8,4.7-6.5l-1.4-0.2C21,16.9,19.5,18.9,17.4,20.1z"/>
	<path fill="#F57C30" d="M4.7,14.7l-1.4,0.2c0.4,2.7,2.1,5.1,4.7,6.5l0.7-1.3C6.5,18.9,5,16.9,4.7,14.7z"/>
	<path fill="#F57C30" d="M13,4.3c1.3,0,2.5,0.3,3.7,0.9l0.7-1.3C16,3.2,14.5,2.8,13,2.8s-3,0.4-4.4,1.1l0.7,1.3
		C10.5,4.6,11.7,4.3,13,4.3z"/>
	<path fill="#F57C30" d="M21.5,9.3c0.3-0.4,0.4-0.8,0.4-1.3V6.8c0-1.2-1.1-2.3-2.5-2.3S17,5.6,17,6.8V8c0,0.5,0.2,0.9,0.4,1.3
		c-0.9,0.4-1.7,1.1-1.7,1.8V13l0.3,0.2c1.3,0.9,2.4,1,3.4,1s2.1-0.1,3.4-1l0.3-0.2v-1.9C23.2,10.3,22.4,9.7,21.5,9.3z M18.5,8V6.8
		c0-0.4,0.5-0.8,1-0.8s1,0.4,1,0.8V8c0,0.4-0.5,0.8-1,0.8S18.5,8.4,18.5,8z M21.7,12.2c-0.8,0.4-1.5,0.5-2.3,0.5s-1.5-0.1-2.3-0.5
		v-1c0.2-0.3,1.3-0.9,2.3-0.9s2.1,0.6,2.3,0.9V12.2z"/>
	<path fill="#F57C30" d="M15,18.3c0.3-0.4,0.4-0.8,0.4-1.3v-1.2c0-1.2-1.1-2.3-2.5-2.3s-2.5,1-2.5,2.3V17c0,0.5,0.2,0.9,0.4,1.3
		c-0.9,0.4-1.7,1.1-1.7,1.8V22l0.3,0.2c1.1,0.9,2.5,1,3.5,1s2.3-0.1,3.5-1l0.3-0.2v-1.8C16.7,19.4,16,18.7,15,18.3z M12,17v-1.2
		c0-0.4,0.5-0.8,1-0.8s1,0.4,1,0.8V17c0,0.4-0.5,0.8-1,0.8S12,17.5,12,17z M15.3,21.2c-0.6,0.3-1.3,0.5-2.3,0.5s-1.7-0.2-2.3-0.5v-1
		c0.2-0.3,1.3-0.9,2.3-0.9s2.1,0.6,2.3,0.9V21.2z"/>
	<path fill="#F57C30" d="M10,13.2l0.3-0.2v-1.9c0-0.8-0.8-1.4-1.7-1.8C8.8,8.9,9,8.5,9,8V6.8c0-1.2-1.1-2.3-2.5-2.3s-2.5,1-2.5,2.3
		V8c0,0.5,0.2,0.9,0.4,1.3c-0.9,0.4-1.7,1.1-1.7,1.8V13l0.3,0.2c1.3,0.9,2.4,1,3.4,1S8.7,14,10,13.2z M5.6,8V6.8C5.6,6.4,6,6,6.5,6
		s1,0.4,1,0.8V8c0,0.4-0.5,0.8-1,0.8S5.6,8.4,5.6,8z M4.3,11.2c0.2-0.3,1.3-0.9,2.3-0.9s2.1,0.6,2.3,0.9v1c-0.8,0.4-1.5,0.5-2.3,0.5
		c-0.8,0-1.5-0.1-2.3-0.5V11.2z"/>
</g>
</svg>
