<?xml version="1.0" encoding="utf-8"?>
<!-- Generator: Adobe Illustrator 18.0.0, SVG Export Plug-In . SVG Version: 6.00 Build 0)  -->
<!DOCTYPE svg PUBLIC "-//W3C//DTD SVG 1.1//EN" "http://www.w3.org/Graphics/SVG/1.1/DTD/svg11.dtd">
<svg version="1.1" id="Layer_1" xmlns="http://www.w3.org/2000/svg" xmlns:xlink="http://www.w3.org/1999/xlink" x="0px" y="0px"
	 viewBox="-1 -1 26 26" enable-background="new -1 -1 26 26" xml:space="preserve">
<g>
	<path fill="#F57C30" d="M5.4,15.2c0.1-0.3,1-0.8,1.8-0.8s1.7,0.6,1.8,0.8v1h1.6v-1.1c0-0.7-0.6-1.4-1.4-1.8
		c0.2-0.3,0.4-0.7,0.4-1.1v-1c0-1.1-1.1-2.1-2.4-2.1s-2.4,1-2.4,2.1v1c0,0.4,0.1,0.8,0.4,1.1c-0.8,0.4-1.4,1.1-1.4,1.8v1.1h1.6V15.2
		z M6.5,11.2c0-0.2,0.4-0.5,0.8-0.5c0.4,0,0.8,0.3,0.8,0.5v1c0,0.2-0.4,0.5-0.8,0.5c-0.4,0-0.8-0.3-0.8-0.5V11.2z"/>
	<path fill="#F57C30" d="M-0.9,5.9v17.4h25.8V5.9H-0.9z M23.3,21.7H0.7V7.5h22.6V21.7z"/>
	<polygon fill="#F57C30" points="2.3,4.9 21.7,4.9 21.7,5.7 23.3,5.7 23.3,3.3 0.7,3.3 0.7,5.7 2.3,5.7 	"/>
	<polygon fill="#F57C30" points="3.8,2.3 20.2,2.3 20.2,3.1 21.7,3.1 21.7,0.7 2.3,0.7 2.3,3.1 3.8,3.1 	"/>
	<rect x="12" y="9.6" fill="#F57C30" width="7.9" height="1.6"/>
	<rect x="12" y="12.3" fill="#F57C30" width="7.9" height="1.6"/>
	<rect x="12" y="14.9" fill="#F57C30" width="7.9" height="1.6"/>
	<rect x="4.1" y="17.5" fill="#F57C30" width="15.8" height="1.6"/>
</g>
</svg>
