<?xml version="1.0" encoding="utf-8"?>
<!-- Generator: Adobe Illustrator 18.0.0, SVG Export Plug-In . SVG Version: 6.00 Build 0)  -->
<!DOCTYPE svg PUBLIC "-//W3C//DTD SVG 1.1//EN" "http://www.w3.org/Graphics/SVG/1.1/DTD/svg11.dtd">
<svg version="1.1" id="icons" xmlns="http://www.w3.org/2000/svg" xmlns:xlink="http://www.w3.org/1999/xlink" x="0px" y="0px"
	 viewBox="0 0 26 26" enable-background="new 0 0 26 26" xml:space="preserve">
<g>
	<path fill="#F57C30" d="M15.1,13c0.4-0.5,0.7-1,0.7-1.7V9.9c0-1.4-1.3-2.6-2.8-2.6s-2.8,1.2-2.8,2.6v1.5c0,0.6,0.3,1.2,0.7,1.7
		c-1.2,0.5-2.3,1.2-2.3,2.1v2.1l0.2,0.2c1.3,1.1,3,1.2,4.1,1.2s2.8-0.1,4.1-1.2l0.2-0.2v-2.1C17.4,14.3,16.3,13.5,15.1,13z
		 M11.5,11.4V9.9c0-0.7,0.7-1.2,1.5-1.2s1.5,0.6,1.5,1.2v1.5c0,0.7-0.7,1.2-1.5,1.2S11.5,12,11.5,11.4z M16.1,16.6
		c-0.8,0.5-1.7,0.7-3.1,0.7s-2.3-0.2-3.1-0.7v-1.5c0.2-0.4,1.7-1.3,3.1-1.3s2.9,0.9,3.1,1.3V16.6z"/>
	<path fill="#F57C30" d="M13,3C7.5,3,3,7.5,3,13c0,5.5,4.5,10,10,10s10-4.5,10-10C23,7.5,18.5,3,13,3z M13,21.7
		c-4.8,0-8.7-3.9-8.7-8.7S8.2,4.3,13,4.3c4.8,0,8.7,3.9,8.7,8.7S17.8,21.7,13,21.7z"/>
</g>
</svg>
