<?xml version="1.0" encoding="utf-8"?>
<!-- Generator: Adobe Illustrator 18.0.0, SVG Export Plug-In . SVG Version: 6.00 Build 0)  -->
<!DOCTYPE svg PUBLIC "-//W3C//DTD SVG 1.1//EN" "http://www.w3.org/Graphics/SVG/1.1/DTD/svg11.dtd">
<svg version="1.1" id="Layer_1" xmlns="http://www.w3.org/2000/svg" xmlns:xlink="http://www.w3.org/1999/xlink" x="0px" y="0px"
	 viewBox="0 0 26 26" enable-background="new 0 0 26 26" xml:space="preserve">
<g>
	<path fill="#F57C30" d="M18.6,5.1V4.8c0-1.4-1.2-2.6-2.6-2.6h-1c-0.4-1.3-1.6-2.3-3-2.3s-2.7,1-3,2.3H8c-1.4,0-2.6,1.2-2.6,2.6v0.3
		H3.1v19h17.8v-8.3v-0.6V5.1H18.6z M7.1,4.8c0-0.5,0.4-0.9,0.9-0.9h2.6V3.1c0-0.8,0.6-1.4,1.4-1.4s1.4,0.6,1.4,1.4V4H16
		c0.5,0,0.9,0.4,0.9,0.9v0.3H7.1V4.8z M19.2,15.7v6.6H4.8V6.8h0.6h0.3h11.7h1.2h0.6v8.3V15.7z"/>
	<rect x="7.4" y="9.1" fill="#F57C30" width="1.2" height="1.7"/>
	<rect x="9.7" y="9.1" fill="#F57C30" width="6.9" height="1.7"/>
	<rect x="7.4" y="12.2" fill="#F57C30" width="1.2" height="1.7"/>
	<rect x="9.7" y="12.2" fill="#F57C30" width="6.9" height="1.7"/>
	<rect x="7.4" y="15.3" fill="#F57C30" width="1.2" height="1.7"/>
	<rect x="9.7" y="15.3" fill="#F57C30" width="6.9" height="1.7"/>
	<rect x="7.4" y="18.3" fill="#F57C30" width="1.2" height="1.7"/>
	<rect x="9.7" y="18.3" fill="#F57C30" width="6.9" height="1.7"/>
</g>
</svg>
