<?xml version="1.0" encoding="utf-8"?>
<!-- Generator: Adobe Illustrator 18.0.0, SVG Export Plug-In . SVG Version: 6.00 Build 0)  -->
<!DOCTYPE svg PUBLIC "-//W3C//DTD SVG 1.1//EN" "http://www.w3.org/Graphics/SVG/1.1/DTD/svg11.dtd">
<svg version="1.1" id="Layer_1" xmlns="http://www.w3.org/2000/svg" xmlns:xlink="http://www.w3.org/1999/xlink" x="0px" y="0px"
	 viewBox="-1 -1 26 26" enable-background="new -1 -1 26 26" xml:space="preserve">
<g>
	<g>
		<rect x="15.3" y="1" fill="#F57C30" width="1.9" height="4.7"/>
	</g>
	<g>
		<rect x="17.7" y="1" fill="#F57C30" width="1.9" height="4.7"/>
	</g>
	<g>
		<path fill="#F57C30" d="M17.4,23.7c-1.9,0-2.9-0.9-2.9-2.5L15.3,11C13.4,10.3,13,9,13,8V1h1.9v7c0,0.5,0.2,1.1,1.6,1.4
			c0.4,0.1,0.8,0.5,0.7,1l-0.8,10.9c0,0.3,0,0.6,1,0.6s1-0.3,1-0.6l-0.8-10.8c0-0.5,0.3-0.9,0.7-1C19.8,9.1,20,8.5,20,8V1h1.9v7
			c0,1-0.4,2.3-2.3,3l0.7,10.2C20.3,22.9,19.3,23.7,17.4,23.7z"/>
	</g>
	<g>
		<path fill="#F57C30" d="M6.2,23.7c-1.4,0-2.5-1.1-2.5-2.5v-6.6l-1.3-1.3c-0.2-0.2-0.3-0.5-0.3-0.8c0-0.2,0.6-6,0.9-7.7
			c0.4-2.2,1.7-4.6,3.5-4.6c1.5,0,2.1,1.2,2.1,1.9v19.2C8.7,22.7,7.6,23.7,6.2,23.7z M4,12.3l1.2,1.2c0.2,0.2,0.3,0.4,0.3,0.7v7
			c0,0.2,0.1,0.6,0.6,0.6c0.4,0,0.6-0.2,0.6-0.5V2.2c0,0-0.1,0-0.2,0c-0.4,0-1.4,1.3-1.7,3C4.6,6.6,4.2,10.9,4,12.3z"/>
	</g>
</g>
</svg>
