<?xml version="1.0" encoding="utf-8"?>
<!-- Generator: Adobe Illustrator 18.0.0, SVG Export Plug-In . SVG Version: 6.00 Build 0)  -->
<!DOCTYPE svg PUBLIC "-//W3C//DTD SVG 1.1//EN" "http://www.w3.org/Graphics/SVG/1.1/DTD/svg11.dtd">
<svg version="1.1" id="Layer_1" xmlns="http://www.w3.org/2000/svg" xmlns:xlink="http://www.w3.org/1999/xlink" x="0px" y="0px"
	 viewBox="0 0 26 26" enable-background="new 0 0 26 26" xml:space="preserve">
<g>
	<path fill="#F57C30" d="M21.2,10.6c-2-1.2-4.3-0.5-6.2,0.9c-0.4-0.4-0.7-0.8-1.2-1.3c-0.9-0.9-1.9-1.7-2.8-2.4
		c0.8-1.8,1.2-4.1,0.6-5.7c-0.4-0.8-1-1.4-1.8-1.6c-1-0.3-2-0.2-2.7,0.4c-0.6,0.5-1,1.2-1,2c0,0.9,0.5,1.6,1.3,2
		C8.2,5.2,9,5.1,9.5,4.5L8.4,3.3c0,0-0.1,0-0.3,0C8,3.3,7.8,3.2,7.8,2.9c0-0.2,0-0.4,0.3-0.6c0.3-0.2,0.7-0.2,1.2-0.1
		C9.6,2.3,9.8,2.5,10,2.9c0.4,0.9,0.2,2.5-0.5,4.1C8.8,6.7,8.2,6.5,7.8,6.5c-0.6,0-1,0.3-1.2,0.5l0,0l0,0L6.2,7.4
		C5.3,8.2,1.6,17.5,0.1,21.5c-0.3,0.7-0.2,1.6,0.3,2.1c0.3,0.3,0.8,0.5,1.3,0.5c0.3,0,0.5-0.1,0.8-0.2c4-1.5,13.3-5.2,14.1-6.1
		l0.4-0.4c0.5-0.5,0.8-1.4-0.2-3.4c-0.2-0.4-0.5-0.9-0.8-1.3c1.4-1,3-1.5,4.3-0.7c0.6,0.4,1,0.9,0.9,1.3c-0.1,0.3-0.3,0.6-0.6,0.6
		c-0.3,0-0.5,0-0.7-0.2c-0.2-0.1-0.3-0.3-0.3-0.4c0,0,0,0,0,0.1L17.9,13c-0.1,0.5,0.1,1.2,0.6,1.7s1.2,0.8,1.9,0.8
		c0.1,0,0.3,0,0.4,0c1-0.2,1.8-0.9,2-2C23.1,12.6,22.5,11.4,21.2,10.6z M13.7,12.6c-0.4,0.4-0.8,0.8-1.1,1.2l1.3,1.1
		c0.3-0.3,0.6-0.6,0.9-1c0.8,1.1,1.1,2,1.1,2.3c-0.6,0-2.4-0.8-4.8-3.2S7.9,8.7,7.9,8.2c0.8,0,2.8,1.1,4.8,3.2
		C13,11.8,13.3,12.2,13.7,12.6z M1.9,22.3c-0.1,0-0.2,0-0.2,0l0,0c0,0,0-0.1,0-0.2c1.5-4,3.7-9.3,4.9-12c0,0.1,0.1,0.2,0.1,0.3
		c0.6,1.2,1.7,2.6,3,3.9s2.7,2.4,3.9,3c0.1,0,0.2,0.1,0.2,0.1C11.2,18.6,5.9,20.8,1.9,22.3z"/>
	<path fill="#F57C30" d="M23.9,5.6L23,4.5l0.4-1.3c0.1-0.3,0-0.6-0.2-0.9C23,2.1,22.6,2,22.3,2.1L21,2.5l-1.1-0.9
		c-0.3-0.2-0.6-0.2-0.9-0.1s-0.5,0.4-0.5,0.7v1.6l-1.1,0.8c-0.2,0.2-0.4,0.5-0.3,0.8c0,0.3,0.2,0.6,0.5,0.7L19,6.6l0.6,1.3
		c0.1,0.3,0.4,0.5,0.7,0.5c0,0,0,0,0.1,0c0.3,0,0.5-0.1,0.7-0.4l0.8-1.1L23.2,7c0.3,0,0.6-0.2,0.7-0.5C24.1,6.2,24.1,5.9,23.9,5.6z
		 M21.2,5.4c-0.3,0-0.5,0.2-0.6,0.4L20.4,6l-0.1-0.3c-0.1-0.2-0.3-0.4-0.5-0.4l-0.3-0.1L19.7,5C19.9,4.8,20,4.6,20,4.3V4l0.2,0.1
		c0.2,0.2,0.5,0.2,0.8,0.1l0.2-0.1l-0.1,0.2c-0.1,0.3,0,0.6,0.2,0.8l0.1,0.2L21.2,5.4z"/>
	<path fill="#F57C30" d="M15.3-0.1l-1.5,0.8c1.1,2.1,0.4,4.7-1.6,5.8L13,8.1C15.9,6.4,16.9,2.8,15.3-0.1z"/>
</g>
</svg>
