<?xml version="1.0" encoding="utf-8"?>
<!-- Generator: Adobe Illustrator 18.0.0, SVG Export Plug-In . SVG Version: 6.00 Build 0)  -->
<!DOCTYPE svg PUBLIC "-//W3C//DTD SVG 1.1//EN" "http://www.w3.org/Graphics/SVG/1.1/DTD/svg11.dtd">
<svg version="1.1" id="Layer_1" xmlns="http://www.w3.org/2000/svg" xmlns:xlink="http://www.w3.org/1999/xlink" x="0px" y="0px"
	 viewBox="-1 -1 26 26" enable-background="new -1 -1 26 26" xml:space="preserve">
<g>
	<rect x="7.9" y="8.2" fill="#F57C30" width="8.1" height="1.5"/>
	<path fill="#F57C30" d="M22.7,8.2h-3.6v1.5h3.6c0.1,0,0.3,0.1,0.3,0.3v1c0,0.1-0.1,0.3-0.3,0.3h-3v1.5h1.6l-1.6,7
		c-0.1,0.4-0.4,0.6-0.7,0.6H5.1c-0.4,0-0.7-0.2-0.7-0.6l-1.6-7h1.6v-1.5h-3c-0.1,0-0.3-0.1-0.3-0.3v-1c0-0.1,0.1-0.3,0.3-0.3h3.6
		V8.2H1.3c-1,0-1.8,0.8-1.8,1.8v1c0,0.9,0.7,1.7,1.7,1.8l1.6,7.4c0.2,1.1,1.2,1.8,2.2,1.8h13.8c1.1,0,2-0.7,2.2-1.8l1.6-7.4
		c0.9-0.1,1.7-0.8,1.7-1.8v-1C24.4,9,23.7,8.2,22.7,8.2z"/>
	<path fill="#F57C30" d="M11.2,13.5v5.1c0,0.4,0.3,0.8,0.8,0.8s0.8-0.3,0.8-0.8v-5.1c0-0.4-0.3-0.8-0.8-0.8S11.2,13.1,11.2,13.5z"/>
	<path fill="#F57C30" d="M14.3,13.4l-0.5,5.1c0,0.4,0.3,0.8,0.7,0.8c0,0,0.1,0,0.1,0c0.4,0,0.7-0.3,0.8-0.7l0.5-5.1
		c0-0.4-0.3-0.8-0.7-0.8C14.7,12.7,14.3,13,14.3,13.4z"/>
	<path fill="#F57C30" d="M18.2,12.8c-0.4-0.1-0.8,0.2-0.9,0.6l-1,5.1c-0.1,0.4,0.2,0.8,0.6,0.9c0.1,0,0.1,0,0.2,0
		c0.4,0,0.7-0.3,0.7-0.6l1-5.1C18.9,13.3,18.7,12.9,18.2,12.8z"/>
	<path fill="#F57C30" d="M8.9,12.8c-0.4,0-0.7,0.4-0.7,0.8l0.5,5.1c0,0.4,0.4,0.7,0.8,0.7c0,0,0.1,0,0.1,0c0.4,0,0.7-0.4,0.7-0.8
		l-0.5-5.1C9.7,13,9.3,12.7,8.9,12.8z"/>
	<path fill="#F57C30" d="M6.2,18.8c0.1,0.4,0.4,0.6,0.7,0.6c0,0,0.1,0,0.2,0c0.4-0.1,0.7-0.5,0.6-0.9l-1-5.1
		c-0.1-0.4-0.5-0.7-0.9-0.6c-0.4,0.1-0.7,0.5-0.6,0.9L6.2,18.8z"/>
	<path fill="#F57C30" d="M5.6,11.2c0.1,0,0.2,0.1,0.3,0.1c0.3,0,0.6-0.2,0.7-0.5l3-7.6c0.2-0.4,0-0.8-0.4-1c-0.4-0.2-0.8,0-1,0.4
		l-3,7.6C5,10.6,5.2,11,5.6,11.2z"/>
	<path fill="#F57C30" d="M17.4,10.8c0.1,0.3,0.4,0.5,0.7,0.5c0.1,0,0.2,0,0.3-0.1c0.4-0.2,0.6-0.6,0.4-1l-3-7.6
		c-0.2-0.4-0.6-0.6-1-0.4c-0.4,0.2-0.6,0.6-0.4,1L17.4,10.8z"/>
</g>
</svg>
